# xmcd
#
# Track frame offsets:
#	150
#	10223
#	33368
#	59366
#	82209
#	97482
#	118160
#	137018
#	151606
#	186540
#	202949
#	219970
#	232937
#	250055
#	263400
#	284035
#	309402
#
# Disc length: 4293 seconds
#
# Revision: 0
# Processed by: cddbd v1.5.1PL0 Copyright (c) Steve Scherf et al.
# Submitted via: audiograbber 1.82.01
#
DISCID=ef10c311
DTITLE=Ry Cooder - Digger
DYEAR=1900
DGENRE=
TTITLE0=Hard Ridin' Papa
TTITLE1=Taxes On The Farmer
TTITLE2=Great Dreams Of Heaven
TTITLE3=Denomination Blues
TTITLE4=Vigilante Man
TTITLE5=Diddy Wah Diddy
TTITLE6=Billy The Kid
TTITLE7=Fool For A Cigarette
TTITLE8=Crazy 'Bout An Automobile
TTITLE9=Wing And A Prayer
TTITLE10=Police Dog Blues
TTITLE11=Clean Up At Home
TTITLE12=President Kennedy
TTITLE13=Holy Spirit
TTITLE14=Jesus On The Mainline
TTITLE15=Boomer's Story
TTITLE16=Ax Sweet Mama
EXTD=
EXTT0=
EXTT1=
EXTT2=
EXTT3=
EXTT4=
EXTT5=
EXTT6=
EXTT7=
EXTT8=
EXTT9=
EXTT10=
EXTT11=
EXTT12=
EXTT13=
EXTT14=
EXTT15=
EXTT16=
PLAYORDER=
